<svg xmlns="http://www.w3.org/2000/svg" xmlns:xlink="http://www.w3.org/1999/xlink" xmlns:fi="http://pattern.flaticon.com/" x="0" y="0" width="512" height="512" viewBox="0 0 358.4 358.4"><rect x="0px" y="0px" width="100%" height="100%" opacity="0" fill="#000000"/><defs><g transform="matrix(5.608659744262695 0 0 5.608659744262695 20.692465901374817 9.544538259506226)" id="L1_7"><rect x="0px" y="0px" width="44px" height="58px" fill="#bfa380"/><rect x="0px" y="0px" width="8px" height="58px" fill="#6b5b4b"/><rect x="15px" y="10px" width="22px" height="12px" fill="#edeada"/><rect x="19px" y="13px" width="14px" height="2px" fill="#cec9ae"/><rect x="19px" y="17px" width="14px" height="2px" fill="#cec9ae"/><rect x="50px" y="7px" width="4px" height="4px" fill="#e0e1e2"/><path d="M54.5,0h-2.015c-0.274,0-0.535,0.056-0.773,0.156c-0.119,0.05-0.232,0.111-0.337,0.183  C50.847,0.696,50.5,1.3,50.5,1.985V7h4V0z" fill="#d75a4a"/><rect x="54px" y="11px" width="4px" height="38px" fill="#db7b1b"/><rect x="54px" y="7px" width="4px" height="4px" fill="#c4c4c4"/><path d="M58.5,1.985L58.5,1.985c0-0.685-0.347-1.289-0.875-1.646C58.153,0.696,58.5,1.3,58.5,1.985z" fill="#d75a4a"/><path d="M58.5,7V1.985c0-0.685-0.347-1.289-0.875-1.646c-0.105-0.071-0.219-0.133-0.337-0.183  C57.05,0.056,56.789,0,56.515,0H54.5v7H58.5z" fill="#b74c44"/><path d="M58.5,49 50.5,49 54.5,56z" fill="#ebd6bd"/><path d="M53.5,58c0,0.553,0.447,1,1,1s1-0.447,1-1v-4h-2V58z" fill="#4c4c4c"/><rect x="50px" y="11px" width="4px" height="38px" fill="#ed8a19"/></g></defs><g fi:class="KUsePattern"><pattern id="pattern_L1_7" width="350" height="350" patternUnits="userSpaceOnUse"><use xlink:href="#L1_7" x="-350" y="-350"/><use xlink:href="#L1_7" x="0" y="-350"/><use xlink:href="#L1_7" x="350" y="-350"/><use xlink:href="#L1_7" x="-350" y="0"/><use xlink:href="#L1_7" x="0" y="0"/><use xlink:href="#L1_7" x="350" y="0"/><use xlink:href="#L1_7" x="-350" y="350"/><use xlink:href="#L1_7" x="0" y="350"/><use xlink:href="#L1_7" x="350" y="350"/></pattern><rect x="0" y="0" width="100%" height="100%" fill="url(#pattern_L1_7)"/></g></svg>