<svg xmlns="http://www.w3.org/2000/svg" xmlns:xlink="http://www.w3.org/1999/xlink" xmlns:fi="http://pattern.flaticon.com/" x="0" y="0" width="512" height="512" viewBox="0 0 179.2 179.2"><rect x="0px" y="0px" width="100%" height="100%" opacity="1" fill="#1b3b55"/><defs><g transform="matrix(0.19891971349716187 0 0 0.19891971349716187 33.07655334472656 48.07655334472656)" id="L1_2"><path d="M493.714,425.143H73.143c-10.099,0-18.286-8.186-18.286-18.286V123.429  c0-10.099,8.186-18.286,18.286-18.286h420.571c10.099,0,18.286,8.186,18.286,18.286v283.429  C512,416.957,503.814,425.143,493.714,425.143z" fill="#5b5d6e"/><g><path d="M91.429,297.143H54.857v109.714c0,10.098,8.187,18.286,18.286,18.286H128v-91.429   C128,313.517,111.626,297.143,91.429,297.143z" fill="#707487"/><path d="M292.571,434.286h-18.286c-5.049,0-9.143-4.094-9.143-9.143v-27.429h36.571v27.429   C301.714,430.192,297.621,434.286,292.571,434.286z" fill="#707487"/></g><path d="M82.286,406.857h402.286c5.049,0,9.143-4.094,9.143-9.143v-27.429H73.143v27.429  C73.143,402.763,77.237,406.857,82.286,406.857z" fill="#c7cfe2"/><rect x="73px" y="370px" width="54px" height="36px" fill="#afb9d2"/><path d="M301.714,86.857c-6.059,0-11.43,2.947-14.758,7.486c-1.685,2.298-5.371,2.298-7.056,0  c-3.328-4.538-8.698-7.486-14.758-7.486H82.286c-5.049,0-9.143,4.094-9.143,9.143v283.429c0,5.049,4.094,9.143,9.143,9.143h182.857  c6.059,0,11.43,2.947,14.758,7.486c1.685,2.298,5.371,2.298,7.056,0c3.327-4.539,8.698-7.486,14.758-7.486h182.857  c5.049,0,9.143-4.094,9.143-9.143V96c0-5.049-4.094-9.143-9.143-9.143H301.714z" fill="#e4eaf8"/><g><path d="M91.429,297.143H73.143v82.286c0,5.049,4.094,9.143,9.143,9.143H128v-54.857   C128,313.517,111.626,297.143,91.429,297.143z" fill="#d5dced"/><path d="M292.571,89.393c-2.201,1.281-4.118,2.998-5.619,5.035c-1.719,2.331-5.328,2.331-7.047,0   c-1.502-2.038-3.418-3.754-5.619-5.035v301.718c2.184,1.272,4.127,2.917,5.615,4.946c1.685,2.298,5.371,2.298,7.056,0   c1.488-2.03,3.431-3.674,5.615-4.946L292.571,89.393L292.571,89.393z" fill="#d5dced"/></g><path d="M18.286,498.286h73.143c10.099,0,18.286-8.186,18.286-18.286V333.714  c0-10.099-8.186-18.286-18.286-18.286H18.286C8.186,315.429,0,323.615,0,333.714V480C0,490.099,8.186,498.286,18.286,498.286z" fill="#5b5d6e"/><path d="M96,461.714H13.714c-2.525,0-4.571-2.047-4.571-4.571V338.286c0-2.525,2.047-4.571,4.571-4.571H96  c2.525,0,4.571,2.047,4.571,4.571v118.857C100.571,459.667,98.525,461.714,96,461.714z" fill="#ffffff"/><g><path d="M82.286,443.429H27.429c-5.054,0-9.143-4.094-9.143-9.143s4.089-9.143,9.143-9.143h54.857   c5.054,0,9.143,4.094,9.143,9.143S87.339,443.429,82.286,443.429z" fill="#5b5d6e"/><path d="M82.286,406.857H27.429c-5.054,0-9.143-4.094-9.143-9.143c0-5.049,4.089-9.143,9.143-9.143h54.857   c5.054,0,9.143,4.094,9.143,9.143C91.429,402.763,87.339,406.857,82.286,406.857z" fill="#5b5d6e"/></g><g><path d="M82.286,370.286H27.429c-5.054,0-9.143-4.094-9.143-9.143c0-5.049,4.089-9.143,9.143-9.143h54.857   c5.054,0,9.143,4.094,9.143,9.143C91.429,366.192,87.339,370.286,82.286,370.286z" fill="#ffdc64"/><path d="M354.609,292.904l-12.08,30.199c-1.533,3.832-6.957,3.832-8.489,0l-12.08-30.199   c-1.296-3.24-1.962-6.697-1.962-10.186V22.857c0-5.049,4.094-9.143,9.143-9.143h18.286c5.049,0,9.143,4.094,9.143,9.143v259.861   C356.571,286.207,355.905,289.665,354.609,292.904z" fill="#ffdc64"/></g><path d="M237.714,141.714H118.857c-5.054,0-9.143-4.094-9.143-9.143c0-5.049,4.089-9.143,9.143-9.143h118.857  c5.054,0,9.143,4.094,9.143,9.143C246.857,137.621,242.768,141.714,237.714,141.714z" fill="#5b5d6e"/><g><path d="M237.714,178.286h-54.857c-5.054,0-9.143-4.094-9.143-9.143c0-5.049,4.089-9.143,9.143-9.143h54.857   c5.054,0,9.143,4.094,9.143,9.143C246.857,174.192,242.768,178.286,237.714,178.286z" fill="#707487"/><path d="M146.286,178.286h-27.429c-5.054,0-9.143-4.094-9.143-9.143c0-5.049,4.089-9.143,9.143-9.143h27.429   c5.054,0,9.143,4.094,9.143,9.143C155.429,174.192,151.339,178.286,146.286,178.286z" fill="#707487"/></g><path d="M164.571,214.857h-45.714c-5.054,0-9.143-4.094-9.143-9.143s4.089-9.143,9.143-9.143h45.714  c5.054,0,9.143,4.094,9.143,9.143S169.625,214.857,164.571,214.857z" fill="#5b5d6e"/><g><path d="M342.53,323.103l12.079-30.199c1.296-3.24,1.962-6.697,1.962-10.187v-3.859H320v3.861   c0,3.489,0.666,6.947,1.962,10.187l12.079,30.199C335.574,326.935,340.998,326.935,342.53,323.103z" fill="#faebc8"/><path d="M356.571,50.286H320V22.857c0-5.049,4.094-9.143,9.143-9.143h18.286   c5.049,0,9.143,4.094,9.143,9.143V50.286z" fill="#faebc8"/></g><rect x="320px" y="50px" width="18px" height="228px" fill="#ffc850"/><g><path d="M338.286,50.286H320V22.857c0-5.049,4.094-9.143,9.143-9.143h9.143V50.286z" fill="#f5dcb4"/><path d="M320,278.857v3.861c0,3.489,0.666,6.947,1.962,10.187l12.079,30.199   c0.766,1.915,2.505,2.873,4.245,2.873v-47.12H320z" fill="#f5dcb4"/></g><path d="M327.314,306.286l6.727,16.817c1.533,3.832,6.957,3.832,8.489,0l6.727-16.817H327.314z" fill="#5b5d6e"/><circle cx="54" cy="480" r="11" fill="#464655"/></g><g transform="matrix(0.06223939830566955 0.03351352312929098 -0.03351352312929098 0.06223939830566955 131.64617595484708 19.487252112650104)" id="L1_3"><path d="M314.667,391.467c6.4-21.333,19.2-40.533,36.267-55.467c32-26.667,52.267-67.2,52.267-112  c0-83.2-69.333-151.467-154.667-147.2C172.8,80,110.933,144,108.8,219.733C107.733,266.667,128,308.267,161.067,336  C179.2,350.933,192,370.133,198.4,391.467L314.667,391.467L314.667,391.467z" fill="#ffd15c"/><path d="M242.133,393.6h9.6l-42.667-158.933c1.067,0,2.133,0,3.2,0c5.333,0,10.667-2.133,14.933-6.4  c2.133-2.133,4.267-3.2,7.467-3.2c3.2,0,5.333,1.067,7.467,3.2c7.467,8.533,20.267,8.533,27.733,0c2.133-2.133,4.267-3.2,7.467-3.2  c2.133,0,5.333,1.067,7.467,3.2c4.267,4.267,8.533,6.4,14.933,6.4c1.067,0,2.133,0,3.2,0l-41.6,158.933h9.6l43.733-166.4  c0-2.133,0-4.267-2.133-5.333c-2.133-1.067-4.267,0-5.333,1.067c-2.133,2.133-4.267,3.2-6.4,3.2c-3.2,0-5.333-1.067-8.533-3.2  c-4.267-4.267-8.533-6.4-13.867-6.4s-9.6,2.133-13.867,6.4s-10.667,4.267-14.933,0c-3.2-4.267-8.533-6.4-13.867-6.4l0,0  c-5.333,0-10.667,2.133-13.867,6.4c-2.133,2.133-5.333,3.2-8.533,3.2c-2.133,0-5.333-1.067-6.4-3.2  c-1.067-1.067-3.2-2.133-5.333-1.067c-2.133,1.067-3.2,3.2-2.133,5.333L242.133,393.6z" fill="#ffffff"/><g><path d="M222.933,489.6C228.267,502.4,241.067,512,256,512c14.933,0,27.733-9.6,33.067-22.4H222.933z" fill="#344a5e"/><path d="M295.467,490.667H217.6c-10.667,0-19.2-8.533-19.2-19.2V390.4h116.267v81.067   C314.667,482.133,306.133,490.667,295.467,490.667z" fill="#344a5e"/></g><g><path d="M313.6,430.933H198.4c-6.4,0-11.733-5.333-11.733-11.733l0,0c0-6.4,5.333-11.733,11.733-11.733   h115.2c6.4,0,11.733,5.333,11.733,11.733l0,0C325.333,425.6,320,430.933,313.6,430.933z" fill="#415a6b"/><path d="M313.6,468.267H198.4c-6.4,0-11.733-5.333-11.733-11.733l0,0c0-6.4,5.333-11.733,11.733-11.733   h115.2c6.4,0,11.733,5.333,11.733,11.733l0,0C325.333,462.933,320,468.267,313.6,468.267z" fill="#415a6b"/></g><g><path d="M256,0c-5.333,0-10.667,4.267-10.667,10.667v36.267c0,5.333,4.267,10.667,10.667,10.667   c6.4,0,10.667-4.267,10.667-10.667V10.667C266.667,4.267,261.333,0,256,0z" fill="#ffd15c"/><path d="M113.067,65.067c-4.267-4.267-10.667-4.267-14.933,0s-4.267,10.667,0,14.933l25.6,25.6   c4.267,4.267,10.667,4.267,14.933,0s4.267-10.667,0-14.933L113.067,65.067z" fill="#ffd15c"/><path d="M80,212.267H43.733c-5.333,0-10.667,4.267-10.667,10.667l0,0c0,5.333,4.267,10.667,10.667,10.667H80   c5.333,0,10.667-4.267,10.667-10.667l0,0C90.667,217.6,85.333,212.267,80,212.267z" fill="#ffd15c"/><path d="M123.733,340.267l-25.6,25.6c-4.267,4.267-4.267,10.667,0,14.933s10.667,4.267,14.933,0l25.6-25.6   c4.267-4.267,4.267-10.667,0-14.933S128,336,123.733,340.267z" fill="#ffd15c"/><path d="M388.267,340.267C384,336,377.6,336,373.333,340.267c-4.267,4.267-4.267,10.667,0,14.933l25.6,25.6   c4.267,4.267,10.667,4.267,14.933,0s4.267-10.667,0-14.933L388.267,340.267z" fill="#ffd15c"/><path d="M468.267,212.267H432c-5.333,0-10.667,4.267-10.667,10.667l0,0c0,5.333,4.267,10.667,10.667,10.667   h36.267c5.333,0,10.667-4.267,10.667-10.667l0,0C478.933,217.6,474.667,212.267,468.267,212.267z" fill="#ffd15c"/><path d="M398.933,65.067l-25.6,25.6c-4.267,4.267-4.267,10.667,0,14.933c4.267,4.267,10.667,4.267,14.933,0   l25.6-25.6c4.267-4.267,4.267-10.667,0-14.933S403.2,60.8,398.933,65.067z" fill="#ffd15c"/></g></g></defs><g fi:class="KUsePattern"><pattern id="pattern_L1_2" width="350" height="350" patternUnits="userSpaceOnUse"><use xlink:href="#L1_2" x="-350" y="-350"/><use xlink:href="#L1_2" x="0" y="-350"/><use xlink:href="#L1_2" x="350" y="-350"/><use xlink:href="#L1_2" x="-350" y="0"/><use xlink:href="#L1_2" x="0" y="0"/><use xlink:href="#L1_2" x="350" y="0"/><use xlink:href="#L1_2" x="-350" y="350"/><use xlink:href="#L1_2" x="0" y="350"/><use xlink:href="#L1_2" x="350" y="350"/></pattern><rect x="0" y="0" width="100%" height="100%" fill="url(#pattern_L1_2)"/></g><g fi:class="KUsePattern"><pattern id="pattern_L1_3" width="350" height="350" patternUnits="userSpaceOnUse"><use xlink:href="#L1_3" x="-350" y="-350"/><use xlink:href="#L1_3" x="0" y="-350"/><use xlink:href="#L1_3" x="350" y="-350"/><use xlink:href="#L1_3" x="-350" y="0"/><use xlink:href="#L1_3" x="0" y="0"/><use xlink:href="#L1_3" x="350" y="0"/><use xlink:href="#L1_3" x="-350" y="350"/><use xlink:href="#L1_3" x="0" y="350"/><use xlink:href="#L1_3" x="350" y="350"/></pattern><rect x="0" y="0" width="100%" height="100%" fill="url(#pattern_L1_3)"/></g></svg>